<svg width="44" height="44" viewBox="0 0 44 44" fill="none" xmlns="http://www.w3.org/2000/svg">
<path fill-rule="evenodd" clip-rule="evenodd" d="M13.0418 13H29.9679L31.0024 26.449L31.0033 26.4563C31.0052 26.472 31.0072 26.4924 31.0092 26.5174C31.013 26.5675 31.0163 26.6359 31.0157 26.7213C31.0146 26.8922 30.9983 27.1307 30.9415 27.426C30.8275 28.0184 30.5521 28.8306 29.9209 29.7773C29.2472 30.7879 28.3832 31.2257 27.6819 31.4032C27.335 31.4909 27.0304 31.5147 26.8101 31.5163C26.6997 31.5171 26.6094 31.5123 26.5442 31.507C26.5155 31.5046 26.4916 31.5022 26.4729 31.5H16.5263L16.5213 31.5004C16.5018 31.5019 16.4754 31.5036 16.4427 31.5049C16.3774 31.5075 16.2865 31.5088 16.1754 31.5043C15.9538 31.4954 15.6476 31.4633 15.301 31.3707C14.6036 31.1845 13.7378 30.7508 13.0888 29.7774C12.4834 28.8691 12.2098 28.0576 12.0896 27.4611C12.0296 27.1635 12.0081 26.9206 12.002 26.7471C11.999 26.6603 11.9998 26.5909 12.0017 26.5406C12.0026 26.5155 12.0038 26.4951 12.0049 26.4798L12.0064 26.4605L12.0066 26.4581L13.0418 13ZM13.0023 26.5512C13.002 26.5559 13.0015 26.5648 13.001 26.5777C13 26.6051 12.9992 26.6505 13.0014 26.7122C13.0057 26.8355 13.0216 27.0238 13.0699 27.2636C13.1663 27.7419 13.3927 28.4304 13.9209 29.2226C14.4055 29.9496 15.0398 30.2659 15.559 30.4046C15.8207 30.4745 16.0519 30.4985 16.2157 30.5052C16.2973 30.5084 16.361 30.5074 16.4022 30.5057C16.4227 30.5049 16.4375 30.5039 16.446 30.5033L16.453 30.5027L16.4781 30.5H26.5436L26.5787 30.5055L26.5853 30.5063C26.5929 30.5072 26.6065 30.5087 26.6258 30.5103C26.6644 30.5135 26.7249 30.5169 26.8029 30.5163C26.9594 30.5152 27.182 30.4981 27.4366 30.4337C27.9382 30.3068 28.5742 29.9947 29.0888 29.2226C29.646 28.3869 29.8706 27.6991 29.9595 27.2371C30.0041 27.0052 30.015 26.828 30.0157 26.7149C30.0161 26.6583 30.0139 26.6176 30.0121 26.5941C30.0112 26.5824 30.0104 26.575 30.0101 26.572L30.0078 26.5575L29.0419 14H26.5048V15.5137L26.5041 15.5275L26.0048 15.5C26.5041 15.5275 26.5041 15.5272 26.5041 15.5275L26.504 15.5287L26.5039 15.5303L26.5037 15.5346L26.5028 15.5475C26.502 15.558 26.5009 15.5723 26.4993 15.5901C26.4961 15.6256 26.4909 15.6753 26.4828 15.737C26.4665 15.8604 26.4385 16.033 26.3905 16.2386C26.295 16.6479 26.118 17.1988 25.7904 17.7541C25.1198 18.8907 23.8392 20 21.5048 20C19.1704 20 17.8899 18.8907 17.2193 17.7541C16.8916 17.1988 16.7147 16.6479 16.6192 16.2386C16.5712 16.033 16.5431 15.8604 16.5269 15.737C16.5188 15.6753 16.5136 15.6256 16.5104 15.5901C16.5088 15.5723 16.5077 15.558 16.5069 15.5475L16.506 15.5346L16.5058 15.5303L16.5057 15.5287C16.5056 15.5284 16.5056 15.5275 17.0048 15.5L16.5056 15.5275L16.5048 15.5137V14H13.9679L13.0023 26.5512ZM25.5048 14H17.5048V15.4819L17.5063 15.4998C17.5084 15.5228 17.5121 15.5591 17.5184 15.6067C17.5309 15.7021 17.5535 15.842 17.593 16.0114C17.6725 16.3521 17.8181 16.8012 18.0805 17.2459C18.5899 18.1093 19.5594 19 21.5048 19C23.4503 19 24.4198 18.1093 24.9292 17.2459C25.1915 16.8012 25.3371 16.3521 25.4166 16.0114C25.4562 15.842 25.4787 15.7021 25.4913 15.6067C25.4975 15.5591 25.5013 15.5228 25.5034 15.4998L25.5048 15.4819V14ZM17.504 15.4712C17.504 15.471 17.504 15.471 17.504 15.4712V15.4712Z" fill="#121212"/>
</svg>
