<svg width="20" height="19" viewBox="0 0 20 19" fill="none" xmlns="http://www.w3.org/2000/svg">
<path fill-rule="evenodd" clip-rule="evenodd" d="M1.04185 0H17.9679L19.0024 13.449L19.0033 13.4563C19.0052 13.472 19.0072 13.4924 19.0092 13.5174C19.013 13.5675 19.0163 13.6359 19.0157 13.7213C19.0146 13.8922 18.9983 14.1307 18.9415 14.426C18.8275 15.0184 18.5521 15.8306 17.9209 16.7773C17.2472 17.7879 16.3832 18.2257 15.6819 18.4032C15.335 18.4909 15.0304 18.5147 14.8101 18.5163C14.6997 18.5171 14.6094 18.5123 14.5442 18.507C14.5155 18.5046 14.4916 18.5022 14.4729 18.5H4.52629L4.52127 18.5004C4.50182 18.5019 4.47541 18.5036 4.44271 18.5049C4.37738 18.5075 4.28649 18.5088 4.17536 18.5043C3.95379 18.4954 3.64758 18.4633 3.30097 18.3707C2.6036 18.1845 1.73784 17.7508 1.08884 16.7774C0.483356 15.8691 0.2098 15.0576 0.0896007 14.4611C0.029628 14.1635 0.00806145 13.9206 0.00200118 13.7471C-0.00102894 13.6603 -0.000184104 13.5909 0.00167947 13.5406C0.00261135 13.5155 0.00379841 13.4951 0.00488465 13.4798L0.00639446 13.4605L0.00661276 13.4581L1.04185 0ZM1.00233 13.5512C1.00201 13.5559 1.00147 13.5648 1.00099 13.5777C0.999977 13.6051 0.999237 13.6505 1.00139 13.7122C1.0057 13.8355 1.02158 14.0238 1.0699 14.2636C1.16629 14.7419 1.39273 15.4304 1.92089 16.2226C2.40553 16.9496 3.03977 17.2659 3.55899 17.4046C3.82068 17.4745 4.05191 17.4985 4.2157 17.5052C4.29726 17.5084 4.36104 17.5074 4.4022 17.5057C4.42275 17.5049 4.43755 17.5039 4.44599 17.5033L4.45302 17.5027L4.4781 17.5H14.5436L14.5787 17.5055L14.5853 17.5063C14.5929 17.5072 14.6065 17.5087 14.6258 17.5103C14.6644 17.5135 14.7249 17.5169 14.8029 17.5163C14.9594 17.5152 15.182 17.4981 15.4366 17.4337C15.9382 17.3068 16.5742 16.9947 17.0888 16.2226C17.646 15.3869 17.8706 14.6991 17.9595 14.2371C18.0041 14.0052 18.015 13.828 18.0157 13.7149C18.0161 13.6583 18.0139 13.6176 18.0121 13.5941C18.0112 13.5824 18.0104 13.575 18.0101 13.572L18.0078 13.5575L17.0419 1H14.5048V2.51375L14.5041 2.52748L14.0048 2.5C14.5041 2.52748 14.5041 2.52719 14.5041 2.52748L14.504 2.5287L14.5039 2.5303L14.5037 2.5346L14.5028 2.54753C14.502 2.55804 14.5009 2.57231 14.4993 2.59009C14.4961 2.62563 14.4909 2.67528 14.4828 2.73705C14.4665 2.86041 14.4385 3.03302 14.3905 3.23863C14.295 3.64793 14.118 4.19879 13.7904 4.75408C13.1198 5.89074 11.8392 7 9.50484 7C7.17043 7 5.88991 5.89074 5.21926 4.75408C4.89163 4.19879 4.71471 3.64793 4.61919 3.23863C4.57121 3.03302 4.54314 2.86041 4.52692 2.73705C4.5188 2.67528 4.51362 2.62563 4.5104 2.59009C4.50879 2.57231 4.50766 2.55804 4.5069 2.54753L4.50602 2.5346L4.50575 2.5303L4.50566 2.5287C4.50565 2.52841 4.50559 2.52748 5.00484 2.5L4.50559 2.52748L4.50484 2.51375V1H1.96788L1.00233 13.5512ZM13.5048 1H5.50484V2.48194L5.50631 2.49976C5.5084 2.52281 5.51213 2.55909 5.51839 2.6067C5.53093 2.70209 5.55349 2.84198 5.59302 3.01137C5.67253 3.35207 5.81814 3.80121 6.08052 4.24592C6.5899 5.10926 7.55939 6 9.50484 6C11.4503 6 12.4198 5.10926 12.9292 4.24592C13.1915 3.80121 13.3371 3.35207 13.4166 3.01137C13.4562 2.84198 13.4787 2.70209 13.4913 2.6067C13.4975 2.55909 13.5013 2.52281 13.5034 2.49976L13.5048 2.48195V1ZM5.50401 2.4712C5.50399 2.47098 5.50399 2.47095 5.50401 2.4712V2.4712Z" fill="#121212"/>
</svg>
