<svg width="20" height="20" viewBox="0 0 20 20" fill="none" xmlns="http://www.w3.org/2000/svg">
<path fill-rule="evenodd" clip-rule="evenodd" d="M13 5.25C13 7.04493 11.5449 8.5 9.75 8.5C7.95507 8.5 6.5 7.04493 6.5 5.25C6.5 3.45507 7.95507 2 9.75 2C11.5449 2 13 3.45507 13 5.25ZM14 5.25C14 7.59721 12.0972 9.5 9.75 9.5C7.40279 9.5 5.5 7.59721 5.5 5.25C5.5 2.90279 7.40279 1 9.75 1C12.0972 1 14 2.90279 14 5.25ZM7.5 11.5C3.7845 11.5 1 14.1669 1 17V17.0146V17.0292V17.0437V17.0581V17.0725V17.0869V17.1011V17.1154V17.1295V17.1436V17.1577V17.1717V17.1856V17.1995V17.2134V17.2271V17.2408V17.2545V17.2681V17.2817V17.2952V17.3086V17.322V17.3353V17.3486V17.3618V17.375V17.3881V17.4012V17.4142V17.4272V17.4401V17.4529V17.4657V17.4784V17.4911V17.5038V17.5163V17.5289V17.5414V17.5538V17.5661V17.5785V17.5907V17.6029V17.6151V17.6272V17.6393V17.6513V17.6632V17.6751V17.687V17.6988V17.7105V17.7222V17.7339V17.7455V17.757V17.7685V17.7799V17.7913V17.8027V17.814V17.8252V17.8364V17.8475V17.8586V17.8697V17.8806V17.8916V17.9025V17.9133V17.9241V17.9349V17.9456V17.9562V17.9668V17.9774V17.9879V17.9983V18.0087V18.0191V18.0294V18.0396V18.0498V18.06V18.0701V18.0802V18.0902V18.1002V18.1101V18.12V18.1298V18.1396V18.1494V18.1591V18.1687V18.1783V18.1879V18.1974V18.2068V18.2162V18.2256V18.2349V18.2442V18.2535V18.2626V18.2718V18.2809V18.2899V18.2989V18.3079V18.3168V18.3257V18.3345V18.3433V18.3521V18.3608V18.3694V18.378V18.3866V18.3951V18.4036V18.412V18.4204V18.4287V18.4371V18.4453V18.4535V18.4617V18.4698V18.4779V18.486V18.494V18.5019V18.5099V18.5177V18.5256V18.5334V18.5411V18.5488V18.5565V18.5641V18.5717V18.5793V18.5868V18.5942V18.6017V18.6091V18.6164V18.6237V18.631V18.6382V18.6454V18.6525V18.6596V18.6667V18.6737V18.6807V18.6876V18.6945V18.7014V18.7082V18.715V18.7218V18.7285V18.7351V18.7418V18.7484V18.7549V18.7614V18.7679V18.7743V18.7808V18.7871V18.7934V18.7997V18.806V18.8122V18.8184V18.8245V18.8306V18.8367V18.8427V18.8487V18.8547V18.8606V18.8665V18.8723V18.8781V18.8839V18.8896V18.8954V18.901V18.9067V18.9123V18.9178V18.9233V18.9288V18.9343V18.9397V18.9451V18.9505V18.9558V18.9611V18.9663V18.9715V18.9767V18.9818V18.987V18.992V18.9971V19.0021V19.0071V19.012V19.0169V19.0218V19.0267V19.0315V19.0363V19.041V19.0457V19.0504V19.0551V19.0597V19.0643V19.0688V19.0733V19.0778V19.0823V19.0867V19.0911V19.0955V19.0998V19.1041V19.1084V19.1126V19.1168V19.121V19.1252V19.1293V19.1334V19.1374V19.1415V19.1455V19.1494V19.1534V19.1573V19.1612V19.165V19.1688V19.1726V19.1764V19.1801V19.1838V19.1875V19.1911V19.1948V19.1984V19.2019V19.2055V19.209V19.2124V19.2159V19.2193V19.2227V19.2261V19.2294V19.2327V19.236V19.2393V19.2425V19.2457V19.2489V19.252V19.2552V19.2583V19.2613V19.2644V19.2674V19.2704V19.2734V19.2763V19.2792V19.2821V19.285V19.2878V19.2906V19.2934V19.2962V19.2989V19.3017V19.3044V19.307V19.3097V19.3123V19.3149V19.3175V19.32V19.3225V19.325V19.3275V19.33V19.3324V19.3348V19.3372V19.3395V19.3419V19.3442V19.3465V19.3487V19.351V19.3532V19.3554V19.3576V19.3598V19.3619V19.364V19.3661V19.3682V19.3702V19.3722V19.3742V19.3762V19.3782V19.3801V19.3821V19.384V19.3858V19.3877V19.3895V19.3914V19.3932V19.395V19.3967V19.3985V19.4002V19.4019V19.4036V19.4052V19.4069V19.4085V19.4101V19.4117V19.4132V19.4148V19.4163V19.4178V19.4193V19.4208V19.4223V19.4237V19.4251V19.4265V19.4279V19.4293V19.4306V19.432V19.4333V19.4346V19.4359V19.4371V19.4384V19.4396V19.4408V19.442V19.4432V19.4444V19.4455V19.4467V19.4478V19.4489V19.45V19.451V19.4521V19.4531V19.4542V19.4552V19.4562V19.4572V19.4581V19.4591V19.46V19.4609V19.4618V19.4627V19.4636V19.4645V19.4653V19.4662V19.467V19.4678V19.4686V19.4694V19.4702V19.4709V19.4717V19.4724V19.4731V19.4738V19.4745V19.4752V19.4759V19.4765V19.4772V19.4778V19.4784V19.479V19.4796V19.4802V19.4808V19.4814V19.4819V19.4825V19.483V19.4835V19.484V19.4845V19.485V19.4855V19.486V19.4864V19.4869V19.4873V19.4877V19.4882V19.4886V19.489V19.4893V19.4897V19.4901V19.4905V19.4908V19.4912V19.4915V19.4918V19.4921V19.4925V19.4928V19.493V19.4933V19.4936V19.4939V19.4941V19.4944V19.4946V19.4949V19.4951V19.4953V19.4956V19.4958V19.496V19.4962V19.4964V19.4966V19.4967V19.4969V19.4971V19.4972V19.4974V19.4975V19.4977V19.4978V19.4979V19.4981V19.4982V19.4983V19.4984V19.4985V19.4986V19.4987V19.4988V19.4989V19.499V19.4991V19.4991V19.4992V19.4993V19.4993V19.4994V19.4994V19.4995V19.4995V19.4996V19.4996V19.4997V19.4997V19.4997V19.4998V19.4998V19.4998V19.4999V19.4999V19.4999V19.4999V19.4999V19.5V19.5V19.5V20H1.5H18.5H19V19.5V19.5V19.5V19.4999V19.4999V19.4999V19.4999V19.4999V19.4998V19.4998V19.4998V19.4997V19.4997V19.4997V19.4996V19.4996V19.4995V19.4995V19.4994V19.4994V19.4993V19.4993V19.4992V19.4991V19.4991V19.499V19.4989V19.4988V19.4987V19.4986V19.4985V19.4984V19.4983V19.4982V19.4981V19.4979V19.4978V19.4977V19.4975V19.4974V19.4972V19.4971V19.4969V19.4967V19.4966V19.4964V19.4962V19.496V19.4958V19.4956V19.4953V19.4951V19.4949V19.4946V19.4944V19.4941V19.4939V19.4936V19.4933V19.493V19.4928V19.4925V19.4921V19.4918V19.4915V19.4912V19.4908V19.4905V19.4901V19.4897V19.4893V19.489V19.4886V19.4882V19.4877V19.4873V19.4869V19.4864V19.486V19.4855V19.485V19.4845V19.484V19.4835V19.483V19.4825V19.4819V19.4814V19.4808V19.4802V19.4796V19.479V19.4784V19.4778V19.4772V19.4765V19.4759V19.4752V19.4745V19.4738V19.4731V19.4724V19.4717V19.4709V19.4702V19.4694V19.4686V19.4678V19.467V19.4662V19.4653V19.4645V19.4636V19.4627V19.4618V19.4609V19.46V19.4591V19.4581V19.4572V19.4562V19.4552V19.4542V19.4531V19.4521V19.451V19.45V19.4489V19.4478V19.4467V19.4455V19.4444V19.4432V19.442V19.4408V19.4396V19.4384V19.4371V19.4359V19.4346V19.4333V19.432V19.4306V19.4293V19.4279V19.4265V19.4251V19.4237V19.4223V19.4208V19.4193V19.4178V19.4163V19.4148V19.4132V19.4117V19.4101V19.4085V19.4069V19.4052V19.4036V19.4019V19.4002V19.3985V19.3967V19.395V19.3932V19.3914V19.3895V19.3877V19.3858V19.384V19.3821V19.3801V19.3782V19.3762V19.3742V19.3722V19.3702V19.3682V19.3661V19.364V19.3619V19.3598V19.3576V19.3554V19.3532V19.351V19.3487V19.3465V19.3442V19.3419V19.3395V19.3372V19.3348V19.3324V19.33V19.3275V19.325V19.3225V19.32V19.3175V19.3149V19.3123V19.3097V19.307V19.3044V19.3017V19.2989V19.2962V19.2934V19.2906V19.2878V19.285V19.2821V19.2792V19.2763V19.2734V19.2704V19.2674V19.2644V19.2613V19.2583V19.2552V19.252V19.2489V19.2457V19.2425V19.2393V19.236V19.2327V19.2294V19.2261V19.2227V19.2193V19.2159V19.2124V19.209V19.2055V19.2019V19.1984V19.1948V19.1911V19.1875V19.1838V19.1801V19.1764V19.1726V19.1688V19.165V19.1612V19.1573V19.1534V19.1494V19.1455V19.1415V19.1374V19.1334V19.1293V19.1252V19.121V19.1168V19.1126V19.1084V19.1041V19.0998V19.0955V19.0911V19.0867V19.0823V19.0778V19.0733V19.0688V19.0643V19.0597V19.0551V19.0504V19.0457V19.041V19.0363V19.0315V19.0267V19.0218V19.0169V19.012V19.0071V19.0021V18.9971V18.992V18.987V18.9818V18.9767V18.9715V18.9663V18.9611V18.9558V18.9505V18.9451V18.9397V18.9343V18.9288V18.9233V18.9178V18.9123V18.9067V18.901V18.8954V18.8896V18.8839V18.8781V18.8723V18.8665V18.8606V18.8547V18.8487V18.8427V18.8367V18.8306V18.8245V18.8184V18.8122V18.806V18.7997V18.7934V18.7871V18.7808V18.7743V18.7679V18.7614V18.7549V18.7484V18.7418V18.7351V18.7285V18.7218V18.715V18.7082V18.7014V18.6945V18.6876V18.6807V18.6737V18.6667V18.6596V18.6525V18.6454V18.6382V18.631V18.6237V18.6164V18.6091V18.6017V18.5942V18.5868V18.5793V18.5717V18.5641V18.5565V18.5488V18.5411V18.5334V18.5256V18.5177V18.5099V18.5019V18.494V18.486V18.4779V18.4698V18.4617V18.4535V18.4453V18.4371V18.4287V18.4204V18.412V18.4036V18.3951V18.3866V18.378V18.3694V18.3608V18.3521V18.3433V18.3345V18.3257V18.3168V18.3079V18.2989V18.2899V18.2809V18.2718V18.2626V18.2535V18.2442V18.2349V18.2256V18.2162V18.2068V18.1974V18.1879V18.1783V18.1687V18.1591V18.1494V18.1396V18.1298V18.12V18.1101V18.1002V18.0902V18.0802V18.0701V18.06V18.0498V18.0396V18.0294V18.0191V18.0087V17.9983V17.9879V17.9774V17.9668V17.9562V17.9456V17.9349V17.9241V17.9133V17.9025V17.8916V17.8806V17.8697V17.8586V17.8475V17.8364V17.8252V17.814V17.8027V17.7913V17.7799V17.7685V17.757V17.7455V17.7339V17.7222V17.7105V17.6988V17.687V17.6751V17.6632V17.6513V17.6393V17.6272V17.6151V17.6029V17.5907V17.5785V17.5661V17.5538V17.5414V17.5289V17.5163V17.5038V17.4911V17.4784V17.4657V17.4529V17.4401V17.4272V17.4142V17.4012V17.3881V17.375V17.3618V17.3486V17.3353V17.322V17.3086V17.2952V17.2817V17.2681V17.2545V17.2408V17.2271V17.2134V17.1995V17.1856V17.1717V17.1577V17.1436V17.1295V17.1154V17.1011V17.0869V17.0725V17.0581V17.0437V17.0292V17.0146V17C19 15.5493 18.1368 14.1683 16.8723 13.1701C15.5997 12.1654 13.8664 11.5 12 11.5H7.5ZM2 17C2 14.8331 4.2155 12.5 7.5 12.5H12C13.6336 12.5 15.1503 13.0846 16.2527 13.9549C17.3632 14.8317 18 15.9507 18 17V17.0146V17.0292V17.0437V17.0581V17.0725V17.0869V17.1011V17.1154V17.1295V17.1436V17.1577V17.1717V17.1856V17.1995V17.2134V17.2271V17.2408V17.2545V17.2681V17.2817V17.2952V17.3086V17.322V17.3353V17.3486V17.3618V17.375V17.3881V17.4012V17.4142V17.4272V17.4401V17.4529V17.4657V17.4784V17.4911V17.5038V17.5163V17.5289V17.5414V17.5538V17.5661V17.5785V17.5907V17.6029V17.6151V17.6272V17.6393V17.6513V17.6632V17.6751V17.687V17.6988V17.7105V17.7222V17.7339V17.7455V17.757V17.7685V17.7799V17.7913V17.8027V17.814V17.8252V17.8364V17.8475V17.8586V17.8697V17.8806V17.8916V17.9025V17.9133V17.9241V17.9349V17.9456V17.9562V17.9668V17.9774V17.9879V17.9983V18.0087V18.0191V18.0294V18.0396V18.0498V18.06V18.0701V18.0802V18.0902V18.1002V18.1101V18.12V18.1298V18.1396V18.1494V18.1591V18.1687V18.1783V18.1879V18.1974V18.2068V18.2162V18.2256V18.2349V18.2442V18.2535V18.2626V18.2718V18.2809V18.2899V18.2989V18.3079V18.3168V18.3257V18.3345V18.3433V18.3521V18.3608V18.3694V18.378V18.3866V18.3951V18.4036V18.412V18.4204V18.4287V18.4371V18.4453V18.4535V18.4617V18.4698V18.4779V18.486V18.494V18.5019V18.5099V18.5177V18.5256V18.5334V18.5411V18.5488V18.5565V18.5641V18.5717V18.5793V18.5868V18.5942V18.6017V18.6091V18.6164V18.6237V18.631V18.6382V18.6454V18.6525V18.6596V18.6667V18.6737V18.6807V18.6876V18.6945V18.7014V18.7082V18.715V18.7218V18.7285V18.7351V18.7418V18.7484V18.7549V18.7614V18.7679V18.7743V18.7808V18.7871V18.7934V18.7997V18.806V18.8122V18.8184V18.8245V18.8306V18.8367V18.8427V18.8487V18.8547V18.8606V18.8665V18.8723V18.8781V18.8839V18.8896V18.8954V18.901V18.9067V18.9123V18.9178V18.9233V18.9288V18.9343V18.9397V18.9451V18.9505V18.9558V18.9611V18.9663V18.9715V18.9767V18.9818V18.987V18.992V18.9971V19H2V18.9971V18.992V18.987V18.9818V18.9767V18.9715V18.9663V18.9611V18.9558V18.9505V18.9451V18.9397V18.9343V18.9288V18.9233V18.9178V18.9123V18.9067V18.901V18.8954V18.8896V18.8839V18.8781V18.8723V18.8665V18.8606V18.8547V18.8487V18.8427V18.8367V18.8306V18.8245V18.8184V18.8122V18.806V18.7997V18.7934V18.7871V18.7808V18.7743V18.7679V18.7614V18.7549V18.7484V18.7418V18.7351V18.7285V18.7218V18.715V18.7082V18.7014V18.6945V18.6876V18.6807V18.6737V18.6667V18.6596V18.6525V18.6454V18.6382V18.631V18.6237V18.6164V18.6091V18.6017V18.5942V18.5868V18.5793V18.5717V18.5641V18.5565V18.5488V18.5411V18.5334V18.5256V18.5177V18.5099V18.5019V18.494V18.486V18.4779V18.4698V18.4617V18.4535V18.4453V18.4371V18.4287V18.4204V18.412V18.4036V18.3951V18.3866V18.378V18.3694V18.3608V18.3521V18.3433V18.3345V18.3257V18.3168V18.3079V18.2989V18.2899V18.2809V18.2718V18.2626V18.2535V18.2442V18.2349V18.2256V18.2162V18.2068V18.1974V18.1879V18.1783V18.1687V18.1591V18.1494V18.1396V18.1298V18.12V18.1101V18.1002V18.0902V18.0802V18.0701V18.06V18.0498V18.0396V18.0294V18.0191V18.0087V17.9983V17.9879V17.9774V17.9668V17.9562V17.9456V17.9349V17.9241V17.9133V17.9025V17.8916V17.8806V17.8697V17.8586V17.8475V17.8364V17.8252V17.814V17.8027V17.7913V17.7799V17.7685V17.757V17.7455V17.7339V17.7222V17.7105V17.6988V17.687V17.6751V17.6632V17.6513V17.6393V17.6272V17.6151V17.6029V17.5907V17.5785V17.5661V17.5538V17.5414V17.5289V17.5163V17.5038V17.4911V17.4784V17.4657V17.4529V17.4401V17.4272V17.4142V17.4012V17.3881V17.375V17.3618V17.3486V17.3353V17.322V17.3086V17.2952V17.2817V17.2681V17.2545V17.2408V17.2271V17.2134V17.1995V17.1856V17.1717V17.1577V17.1436V17.1295V17.1154V17.1011V17.0869V17.0725V17.0581V17.0437V17.0292V17.0146V17Z" fill="#121212"/>
</svg>
